<svg width="225" height="32" fill="none" xmlns="http://www.w3.org/2000/svg"><path d="M29.17 3.25c.3-.7.59-1.27.86-1.7.27-.43.55-.74.85-.94.29-.2.83-.35 1.2-.47V0c-.31.02-.79.03-1.02.05-.23.01-.6.02-1.11.02-.54 0-1.13-.01-1.75-.02-.63-.02-1.31-.03-1.64-.05v.15c.54.1 1.14.25 1.39.45.24.2.36.52.36.95 0 .39-.1.92-.31 1.58-.2.66-.47 1.49-.8 2.49l-4.18 12.09-3.56-9.83.67-1.88c.41-1.13.76-2.05 1.07-2.75.3-.7.59-1.27.86-1.7.27-.43.55-.74.85-.94.29-.2.83-.35 1.2-.47V0c-3.44.08-8.06.05-11.57 0v.15c.29.06.75.12.97.17.21.06.41.16.6.31s.36.35.53.61c.17.27.34.63.51 1.1l2.68 7.34-2.77 8.02L9.61 2.69c-.09-.29-.18-.55-.25-.79s-.1-.45-.1-.64c0-.33.12-.58.35-.76.23-.17.84-.29 1.4-.35V0c-.33.02-.96.03-1.48.05-.51 0-1.04.01-1.59.01h-.83c-.3 0-.6-.01-.91-.02C5.9.03 5.42.02 5.17.02 4.92.01 4.71 0 4.56 0v.15c.29.06.54.12.76.17.21.06.62.16.8.31.19.15.36.35.53.61.17.27.34.63.51 1.1l7.16 19.58h.17l3.84-10.84 3.96 10.84h.17L28.11 6c.41-1.13.76-2.05 1.06-2.75zM18.94 6.43l-1.35-3.74c-.1-.29-.18-.55-.25-.79s-.1-.45-.1-.64c0-.33.12-.58.35-.76.23-.17.63-.29 1.2-.35.54.1.94.25 1.18.45s.36.52.36.95c0 .39-.1.92-.31 1.58s-.47 1.49-.8 2.49l-.28.81zM3.48 5.4c-.54 0-1.09-.01-1.62-.02-.54-.01-.97-.02-1.3-.05v.14c.27.05.51.11.74.17.22.07.42.19.58.36.17.17.29.43.38.76.09.34.14.8.14 1.38V28.2c0 .66-.03 1.21-.09 1.64-.06.43-.17.77-.35 1.04-.18.27-.42.47-.73.61-.32.15-.72.27-1.23.37l.03.14c.93-.12 1.7-.35 2.29-.7.59-.35 1.06-.8 1.39-1.34.33-.55.56-1.18.67-1.9.12-.72.18-1.52.18-2.4V8.15c0-.58.04-1.04.12-1.38.08-.33.19-.58.34-.75.15-.17.32-.28.54-.35.21-.07.45-.13.72-.19v-.15c-.31.03-.73.04-1.25.05-.53.01-1.05.02-1.55.02zm79.29 2.81c-1.12-.92-2.48-1.62-4.07-2.11-1.6-.49-3.4-.73-5.4-.73-.74 0-1.47.01-2.18.02-.72.01-1.53.01-2.45.01H68c-.25 0-.51-.01-.77-.02l-.75-.03c-.15-.01-.27-.01-.39-.01h-.04c-.05 0-.15.01-.15.01-.26.02-.55.03-.87.03-.4.01-.85.02-1.36.02-.55 0-1.01 0-1.4-.02-.39-.01-.75-.02-1.08-.04v.15c.3.11.58.23.81.33.23.11.42.31.57.61.15.3.26.75.35 1.35.09.59.15 1.44.19 2.53.04 1.09.06 2.48.07 4.17.01 1.69.02 3.76.02 6.22v2.6L46.66 4.9h-.2v6.47c0 2.44-.01 4.49-.02 6.16s-.03 3.04-.07 4.13c-.04 1.08-.09 1.92-.16 2.52-.07.6-.17 1.05-.32 1.36-.15.31-.33.53-.54.65-.21.12-.48.24-.79.35a4.92 4.92 0 01-.66-.14.86.86 0 01-.42-.31c-.12-.15-.23-.36-.32-.63-.1-.27-.22-.64-.35-1.11L36.67 4.9h-.29l-6.6 17.58c-.31.84-.58 1.5-.82 1.99-.23.49-.47.87-.7 1.14-.23.27-.48.47-.75.6-.26.13-.58.23-.95.31v.15c.31-.02.6-.03.85-.05.25-.01.63-.02 1.14-.02.54 0 1.05.01 1.52.02s.87.02 1.2.05v-.15c-.51-.06-.86-.2-1.05-.44-.2-.24-.29-.52-.29-.85 0-.27.05-.58.14-.92.1-.34.21-.7.35-1.07l1.75-4.74c.51-.02 1.02-.03 1.53-.03h4.92l1.72 5.5c.1.3.18.57.25.82.07.26.1.49.1.7 0 .27-.09.5-.28.69-.19.18-.52.3-1.01.34v.15c.33-.02.71-.04 1.14-.05.43-.01.91-.02 1.46-.02.51 0 .98.01 1.42.02.44.01.81.02 1.13.05.31-.02.65-.04 1.01-.05a45.447 45.447 0 012.7 0c.39.01.75.02 1.08.05v-.15c-.33-.12-.61-.23-.83-.34-.22-.11-.41-.32-.57-.63-.16-.31-.27-.77-.35-1.36-.08-.59-.14-1.43-.17-2.52-.04-1.08-.06-2.46-.07-4.13-.01-1.67-.01-3.72-.01-6.16V8.75l16.6 18.49h.14v-6.72c0-2.44 0-4.48.01-6.15.01-1.66.03-3.03.07-4.11.04-1.08.1-1.92.19-2.52.09-.59.2-1.04.35-1.35.15-.3.33-.5.56-.6.21-.09.46-.19.76-.3.26.05.5.11.72.17.25.07.47.19.64.35.18.17.31.41.41.75.1.33.15.79.15 1.38v15.72c0 .58-.04 1.04-.12 1.37-.08.33-.2.58-.36.76-.17.17-.38.29-.64.35s-.58.12-.95.17v.15c.33-.02.8-.03 1.42-.05.61-.01 1.19-.01 1.74-.01.43 0 .91.01 1.44.01l1.61.03 1.55.03c.5.01.94.02 1.33.02 1.93 0 3.61-.28 5.03-.85 1.42-.57 2.59-1.33 3.52-2.28.92-.96 1.61-2.07 2.06-3.35.45-1.28.67-2.63.67-4.05 0-1.7-.29-3.22-.89-4.57-.61-1.33-1.46-2.47-2.58-3.38zm-47.5 9.42h-1.39c-.46 0-.92-.01-1.39-.03l3.18-8.63 2.69 8.66h-3.09zm47.82 3.22c-.46 1.29-1.09 2.31-1.88 3.07-.8.76-1.73 1.3-2.8 1.61-1.08.31-2.24.47-3.49.47-.7 0-1.5-.03-2.38-.1a22.8 22.8 0 01-2.44-.31V6.39c.57-.14 1.13-.23 1.68-.27.55-.04 1.11-.06 1.68-.06 1.44 0 2.79.18 4.05.54 1.25.36 2.35.94 3.27 1.74.92.8 1.66 1.83 2.19 3.09.54 1.26.8 2.78.8 4.55 0 1.96-.22 3.58-.68 4.87z" fill="#000"/><path d="M98.63 24.51c-.17.39-.44.68-.83.87-.39.18-.93.29-1.62.32-.69.03-2.47.05-3.61.05-1.35 0-2.17-.06-2.48-.18v-9.51c1.34 0 1.52.02 2.28.04.76.03 1.34.13 1.74.29.4.17.67.43.82.78.15.35.28.84.39 1.46h.15c0-.25-.01-.48-.02-.67l-.03-.61c-.01-.21-.01-.46-.01-.72v-.98c0-.6.01-1.1.01-1.48.01-.38.02-.8.04-1.24h-.15c-.12.55-.25.97-.39 1.27-.14.3-.42.53-.82.67-.4.15-.98.24-1.74.26-.76.03-.94.05-2.28.05V6.45c.12-.02.23-.04.35-.07.12-.03.26-.05.44-.06.18-.01.39-.02.66-.03.26-.01.31-.02.72-.02 1.07 0 1.37.02 2.05.06.68.04 1.21.15 1.59.32.38.18.64.44.77.8.14.36.2.87.2 1.51h.15c.08-.31.13-.71.15-1.18.02-.48.03-.88.03-1.21 0-.24-.01-.47-.02-.72-.01-.24-.01-.42-.01-.51-.66.04-1.62.06-2.88.06h-4.37c-1.05 0-1.87-.01-2.44-.02-.57-.01-1.01-.02-1.3-.05v.15c.31.06.58.12.8.17.22.06.41.17.55.35.14.17.25.43.31.76s.09.79.09 1.38v15.72c0 .51-.02.92-.06 1.23-.04.31-.12.57-.25.76-.13.2-.29.34-.51.44-.21.1-.5.17-.85.24v.15c.16 0 .44-.01.86-.01.42-.01.91-.02 1.46-.03.55-.01 1.14-.02 1.77-.02h3.49c.46 0 1.76.01 2.17.02l1.3.03c.46.01 1.03.02 1.71.04 0-.31.01-.58.03-.79a41.856 41.856 0 00.12-1.61c.02-.35.03-.84.03-1.46h-.14c-.11.71-.25 1.27-.42 1.66zm13.03-.77c-.47-.68-.91-1.4-1.34-2.16-.43-.76-.82-1.47-1.18-2.14-.36-.66-.68-1.24-.95-1.73-.27-.49-.49-.79-.64-.91.86-.19 1.61-.48 2.25-.86a6.15 6.15 0 001.59-1.32c.42-.5.73-1.04.94-1.62.2-.58.31-1.19.31-1.81 0-.84-.15-1.62-.46-2.34a5.13 5.13 0 00-1.33-1.86c-.58-.52-1.31-.92-2.16-1.21-.86-.29-1.84-.44-2.95-.44-.33 0-.81.01-1.43.03-.62.02-1.16.03-1.61.03h-1.51c-.2 0-.41-.01-.61-.02s-.43-.02-.69-.05v.15c.27.04.5.11.69.2.19.1.33.25.44.45.11.2.18.47.22.79.04.32.06.73.06 1.21v15.72c0 .58-.02 1.04-.07 1.38-.05.33-.13.58-.25.76-.12.18-.27.3-.46.36-.19.07-.42.12-.69.16v.14a56.714 56.714 0 012.54-.06c.51 0 .98 0 1.42.02.44.01.81.02 1.13.04v-.14c-.27-.04-.5-.09-.69-.16a.888.888 0 01-.45-.36c-.12-.17-.2-.43-.25-.76-.05-.33-.07-.79-.07-1.38V17.1h1.87c.16.14.31.32.47.56.16.24.31.48.45.75.14.26.28.52.39.76.12.24.23.44.32.6.86 1.62 1.55 2.89 2.09 3.8.54.92 1.03 1.6 1.47 2.06.45.46.91.75 1.39.88.48.13 1.1.2 1.86.22h.39c.09 0 .2-.01.34-.03v-.17c-.47-.16-.94-.49-1.42-.99-.48-.52-.96-1.11-1.42-1.8zm-6.81-7.25h-1.4V6.31c.43-.12.8-.2 1.13-.24.32-.04.65-.06.98-.06.76 0 1.43.14 2 .44.57.29 1.06.69 1.44 1.19.39.5.68 1.08.88 1.75.2.68.29 1.4.29 2.18 0 .7-.08 1.35-.24 1.95a3.63 3.63 0 01-.85 1.55c-.41.44-.95.78-1.64 1.04-.67.25-1.54.38-2.59.38zm18.88-.41c-.64-.58-1.34-1.12-2.1-1.59-.76-.48-1.46-.98-2.1-1.51a8.125 8.125 0 01-1.61-1.77c-.43-.65-.64-1.45-.64-2.38 0-.58.1-1.08.29-1.49.19-.41.46-.75.79-1.02s.71-.47 1.14-.6c.43-.13.88-.19 1.34-.19 1.07 0 1.97.27 2.69.82.72.55 1.19 1.4 1.4 2.55h.17c-.02-.21-.03-.48-.03-.8v-.8c0-.39.01-.73.01-1.02.01-.29.03-.59.07-.91-.1.02-.18.03-.25.03h-.25c-.57 0-1.15-.08-1.74-.24-.59-.16-1.31-.24-2.15-.24-.78 0-1.5.13-2.16.38-.66.26-1.23.61-1.71 1.05-.48.45-.85 1-1.13 1.65-.27.65-.41 1.37-.41 2.15 0 1.07.21 1.97.64 2.71.43.73.97 1.39 1.62 1.96.65.58 1.36 1.1 2.12 1.58s1.47.99 2.12 1.52c.65.54 1.19 1.15 1.62 1.83.43.68.64 1.51.64 2.49 0 .68-.11 1.27-.34 1.76-.23.49-.52.9-.89 1.23-.37.33-.79.58-1.27.73-.48.16-.97.24-1.47.24-.58 0-1.15-.08-1.69-.24-.55-.16-1.03-.39-1.46-.7-.43-.31-.77-.7-1.04-1.16-.26-.46-.39-.99-.39-1.59 0-.12 0-.24.01-.35.01-.12.02-.24.04-.38h-.15c-.13.29-.23.61-.28.94a6.804 6.804 0 000 1.95c.05.32.07.65.07.98v.42c0 .15-.01.26-.03.34.1-.02.17-.03.22-.03h.22c.35 0 .68.03.98.09.3.06.61.12.92.19.31.07.65.13 1.02.19s.8.09 1.28.09c.86 0 1.65-.14 2.4-.41a5.67 5.67 0 001.93-1.18c.55-.52.97-1.14 1.29-1.87.31-.73.47-1.56.47-2.47 0-1.11-.22-2.06-.64-2.84-.4-.82-.94-1.51-1.58-2.09zm23.12-4.32c-.54-1.34-1.29-2.49-2.24-3.47-.95-.97-2.05-1.74-3.32-2.28-1.27-.55-2.61-.82-4.03-.82-1.65 0-3.14.31-4.47.94-1.33.62-2.44 1.45-3.36 2.49a11.19 11.19 0 00-2.12 3.53 11.335 11.335 0 00-.02 8 10.28 10.28 0 002.07 3.42c.91.99 2.01 1.8 3.3 2.41 1.29.61 2.75.92 4.37.92 1.52 0 2.93-.28 4.22-.85 1.29-.57 2.42-1.34 3.38-2.31.95-.98 1.7-2.12 2.24-3.42.54-1.31.8-2.71.8-4.21-.01-1.56-.28-3.01-.82-4.35zm-2.5 8.94c-.42 1.25-.98 2.28-1.69 3.1a6.7 6.7 0 01-2.51 1.83c-.96.4-2 .6-3.11.6-1.07 0-2.07-.2-3.01-.58-.94-.39-1.75-1-2.46-1.83-.7-.83-1.25-1.88-1.66-3.16-.41-1.28-.61-2.79-.61-4.55 0-1.84.22-3.4.66-4.7.44-1.3 1.02-2.36 1.75-3.19.73-.83 1.56-1.43 2.48-1.81.92-.38 1.88-.57 2.85-.57.99 0 1.96.2 2.91.58.94.39 1.79 1.01 2.54 1.86.75.85 1.35 1.93 1.81 3.25.46 1.32.69 2.9.69 4.76-.02 1.69-.22 3.17-.64 4.41zm23.58-15.32c-.4.01-.85.02-1.36.02-.55 0-1.01 0-1.4-.02a17.1 17.1 0 01-1.08-.05v.14c.31.12.58.23.82.34.24.11.43.31.57.61.15.3.26.75.35 1.35.09.6.15 1.44.19 2.53.04 1.09.06 2.48.07 4.17.01 1.69.01 3.76.01 6.22v2.6L149.57 4.9h-.2v6.47c0 2.44-.01 4.49-.01 6.16-.01 1.67-.03 3.04-.07 4.13-.04 1.08-.09 1.92-.16 2.52-.07.59-.18 1.05-.32 1.36-.14.31-.32.53-.54.65-.21.12-.48.24-.79.35v.15c.31-.02.65-.03 1.01-.05a45.447 45.447 0 012.7 0c.39.01.75.02 1.08.05v-.15c-.33-.12-.61-.23-.83-.34-.22-.11-.41-.32-.57-.63-.16-.31-.27-.77-.35-1.36-.08-.59-.14-1.43-.17-2.52-.04-1.08-.06-2.46-.07-4.13-.01-1.67-.01-3.72-.01-6.16V8.76l16.6 18.49h.15v-6.73c0-2.44.01-4.48.01-6.15.01-1.66.03-3.03.07-4.11.04-1.08.1-1.92.19-2.52.09-.59.2-1.04.35-1.35.15-.3.33-.5.55-.6.23-.1.5-.2.83-.32v-.13c-.34.02-.69.03-1.09.04z" fill="#000"/><path d="M197.01 30.04h27.98c.01 0 .01-.01.01-.01V2.01c0-.01-.01-.01-.02-.01H197s-.01 0-.01.01v28.02c0 .01.01.01.02.01z" fill="red"/><path d="M217.64 14.69h1.75c.01 0 .01-.01.01-.01V5.84c0-.01-.01-.01-.01-.01h-1.75c-.01 0-.01.01-.01.01v8.83c0 .02.01.02.01.02zm-11.21-3.06c0 1.58-1.19 2.96-2.77 3.06-1.71.1-3.12-1.26-3.12-2.95v-5.9c0-.01.01-.01.01-.01h1.75c.01 0 .01.01.01.01v5.86c0 .57.39 1.09.95 1.2.75.14 1.4-.43 1.4-1.16v-5.9c0-.01.01-.01.01-.01h1.75c.01 0 .01.01.01.01v5.79zm8.24 14.58h-5.87c-.01 0-.01-.01-.01-.01v-8.83c0-.01.01-.01.01-.01h1.74c.01 0 .01.01.01.01v7.06c0 .01.01.01.01.01h4.1c.01 0 .01.01.01.01v1.75c.01 0 0 .01 0 .01zm0-11.52h-1.75c-.01 0-.01 0-.01-.01l-2.33-5.01c-.01-.01-.02-.01-.02.01v5c0 .01-.01.01-.01.01h-1.74c-.01 0-.01-.01-.01-.01V5.85c0-.01.01-.01.01-.01h1.75c.01 0 .01 0 .01.01l2.33 5.01c.01.01.02.01.02-.01v-5c0-.01.01-.01.01-.01h1.75c.01 0 .01.01.01.01v8.83c-.01.01-.02.01-.02.01zm-11.19 2.66c-1.63 0-2.95 1.33-2.95 2.96v2.95c0 1.63 1.32 2.95 2.95 2.95.19 0 .38-.02.56-.05.01 0 .01 0 .01.01l.59 1.81c0 .01.01.01.01.01h1.75c.01 0 .01-.01.01-.02l-.87-2.6v-.01c.54-.54.87-1.27.87-2.09v-2.95c.02-1.65-1.3-2.97-2.93-2.97zm1.17 5.91c0 .65-.52 1.18-1.17 1.18-.65 0-1.18-.53-1.18-1.18v-2.88c0-.65.49-1.23 1.13-1.25.67-.02 1.22.51 1.22 1.18v2.95zm13.86-5.91c-1.63 0-2.95 1.33-2.95 2.96v2.83c0 1.58 1.19 2.96 2.76 3.07a2.95 2.95 0 003.14-2.94v-2.95c0-1.65-1.32-2.97-2.95-2.97zm1.18 5.83c0 .65-.49 1.23-1.13 1.25-.67.03-1.23-.51-1.23-1.18v-2.91c0-.57.38-1.09.94-1.2.75-.15 1.42.42 1.42 1.15v2.89z" fill="#fff"/></svg>